<svg id="Capa_1" enable-background="new 0 0 512 512" height="512" viewBox="0 0 512 512" width="512" xmlns="http://www.w3.org/2000/svg"><path d="m326.855 37.927-62.913-35.95c-4.611-2.636-10.272-2.636-14.884 0l-62.725 35.843 70.185 39.933z"/><path d="m171.5 463.296c0 5.383 2.884 10.353 7.558 13.023l62.442 35.681v-79.981l-70-39.828z"/><path d="m271.5 512 62.442-35.681c4.674-2.67 7.558-7.641 7.558-13.023v-70.891l-70 39.635z"/><path d="m.5 299.148c0 5.383 2.884 10.353 7.558 13.023l62.442 35.682v-79.981l-70-39.828z"/><path d="m441.5 267.892v79.96l62.442-35.681c4.674-2.67 7.558-7.641 7.558-13.023v-70.891z"/><path d="m241.5 183.705v-79.981l-70-39.828v71.104c0 5.383 2.884 10.353 7.558 13.023l5.378 2.381-58.605 34.514-32.889-18.793c-4.611-2.636-10.272-2.636-14.884 0l-62.725 35.843 70.185 39.933 124.571-76.145z"/><path d="m436.602 166.125c-4.611-2.636-10.272-2.636-14.884 0l-32.889 18.793-56.956-35.15 3.728-1.745c4.674-2.67 7.558-7.641 7.558-13.023v-71.104l-70 39.828v79.981l33.386-19.077 122.596 77.273 70.185-39.933z"/><path d="m341.5 301.472-59.057 39.372-18.501-10.572c-4.611-2.636-10.272-2.636-14.884 0l-18.501 10.572-60.058-40.04v-72.547l-70 39.635v79.96l46.57-26.611 54.366 36.244-15.102 8.63 70.185 39.933 70.337-39.826-15.29-8.737 53.904-35.937 46.032 26.304v-79.981l-70-39.828v73.429z"/></svg>